<svg xmlns="http://www.w3.org/2000/svg" xml:space="preserve" width="24" height="24" viewBox="0 0 6.35 6.35"><path d="M85.108 151.238c-.33-.022-.532-.086-.704-.22-.217-.17-.319-.436-.368-.958-.038-.397-.159-2.335-.148-2.371a.23.23 0 0 1 .138-.135c.09-.024.205.033.232.116.007.022.047.542.088 1.156.096 1.436.112 1.572.196 1.738.095.186.235.252.593.277a23 23 0 0 0 1.501 0c.404-.029.544-.113.628-.378.057-.176.065-.268.157-1.64.042-.612.081-1.131.088-1.153.028-.083.142-.14.232-.116a.23.23 0 0 1 .139.135c.007.027-.012.387-.062 1.14-.08 1.18-.098 1.405-.137 1.594-.101.499-.353.73-.873.804-.122.017-1.484.026-1.7.011m.14-1.346a.2.2 0 0 1-.066-.07c-.024-.045-.158-1.326-.15-1.431q.009-.114.1-.159a.21.21 0 0 1 .194.008c.084.057.083.05.156.775.037.367.066.695.063.73a.2.2 0 0 1-.031.101.2.2 0 0 1-.266.046zm1.072.011q-.09-.045-.098-.158c-.003-.035.026-.363.063-.73.074-.726.072-.718.156-.775a.21.21 0 0 1 .194-.008q.092.045.101.159c.002.034-.026.363-.063.73-.074.725-.072.718-.156.775a.21.21 0 0 1-.197.007zm-2.756-2.635a.2.2 0 0 1-.06-.04c-.095-.089-.083-.229.027-.31.034-.026.053-.027.521-.033.471-.006.488-.007.537-.034.089-.047.147-.127.192-.261.054-.165.086-.224.167-.312a.6.6 0 0 1 .314-.174 16 16 0 0 1 1.243 0 .6.6 0 0 1 .314.174c.081.088.113.147.167.312.045.134.103.214.192.261.05.027.066.028.537.034.469.006.487.007.521.032.122.09.122.243 0 .333l-.035.026-2.303.002c-1.513.002-2.313-.002-2.334-.01zm3.097-.417a2 2 0 0 1-.057-.153c-.04-.124-.075-.171-.141-.197-.023-.009-.225-.013-.58-.013-.354 0-.556.005-.578.013-.067.026-.101.073-.142.197a2 2 0 0 1-.057.153l-.017.034h1.589z" style="stroke-width:.0124023" transform="translate(-82.709 -145.496)"/></svg>