<svg xmlns="http://www.w3.org/2000/svg" width="24" height="24" viewBox="0 0 512 512"><path d="M52.773 494.445c-8.254-2-14.748-5.601-21.685-12.024-6.873-6.363-12.426-16.337-14.09-25.307-1.37-7.39-1.37-394.838 0-402.228 3.38-18.224 19.555-34.388 37.893-37.865 7.56-1.434 330.933-1.41 334.794.025 3.755 1.396 103.105 100.516 104.914 104.672 1.182 2.716 1.401 28.721 1.401 166.613 0 106.958-.353 165.255-1.02 168.778-2.614 13.78-12.846 27.265-25.335 33.39-3.93 1.927-9.569 3.953-12.531 4.502-3.48.645-74.981.97-202 .916-164.113-.07-197.56-.313-202.341-1.472M96 406.136c0-34.266.407-60.06.999-63.25 1.663-8.97 7.216-18.944 14.09-25.307 3.345-3.098 8.285-6.748 10.978-8.113 10.993-5.57 7.676-5.435 133.547-5.451 73.119-.01 118.108.355 121.5.984 18.285 3.39 34.376 19.493 37.865 37.892.62 3.272 1.021 28.089 1.021 63.306v57.924l18.93-.31c20.711-.34 21.562-.571 26.508-7.196 2.06-2.759 2.062-2.926 2.321-162.425l.26-159.663-43.256-43.264L377.51 48h-25.44l-.285 51.75-.284 51.75-2.62 5.586c-3.33 7.101-8.693 12.464-15.794 15.794l-5.586 2.62h-143l-4.83-2.229c-7.513-3.468-12.045-7.631-15.756-14.475L160.5 152.5l-.292-52.276-.292-52.277-50.885.277c-49.613.27-50.955.328-53.647 2.338-1.518 1.134-3.688 3.304-4.822 4.823L48.5 58.147l-.285 195.176c-.157 107.347-.027 196.626.29 198.398.716 4.01 4.92 9.119 8.945 10.872 2.145.935 8.315 1.34 20.8 1.368L96 464Zm287.773-1.063c-.267-57.74-.315-58.983-2.335-61.689-1.134-1.518-3.304-3.688-4.823-4.822-2.753-2.055-3.144-2.062-120.615-2.062s-117.862.007-120.615 2.062c-1.519 1.134-3.69 3.304-4.823 4.822-2.02 2.706-2.068 3.95-2.335 61.689L127.954 464h256.092ZM320 96V48H192v96h128z"/></svg>